PathFileType	4	(X/Y/Z)	E:\Studenten\Marcel_BSc\Ayumi_25_09_2024\25-09-2024\sumo_dl_80kg01.trc
DataRate	CameraRate	NumFrames	NumMarkers	Units	OrigDataRate	OrigDataStartFrame	OrigNumFrames
200.0	200.0	4	52	mm	200.0	348	2782	
Frame#	Time	RSACR			LSACR			USACR			LBAR			RBAR			RHEE			RMT1			RMT5			RMT2			LHEE			LMT1			LMT5			LMT2			LMMAL			LLMAL			LTIB4			LTIB2			LTIB3			LTIB1			RMMAL			RLMAL			RTIB1			RTIB2			RTIB3			RTHI1			RTHI4			RTHI3			RTHI2			LTHI1			LTHI4			LTHI3			LTHI2			FHD			LBHD			RBHD			C7			T10			CLAV			LSHO			RSHO			LRAD			LUL			LRFIN			RRAD			RUL			RUFIN			LDUPA			LMUPA			LUUPA			RDUPA			RUUPA			RMUPA			
		X1	Y1	Z1	X2	Y2	Z2	X3	Y3	Z3	X4	Y4	Z4	X5	Y5	Z5	X6	Y6	Z6	X7	Y7	Z7	X8	Y8	Z8	X9	Y9	Z9	X10	Y10	Z10	X11	Y11	Z11	X12	Y12	Z12	X13	Y13	Z13	X14	Y14	Z14	X15	Y15	Z15	X16	Y16	Z16	X17	Y17	Z17	X18	Y18	Z18	X19	Y19	Z19	X20	Y20	Z20	X21	Y21	Z21	X22	Y22	Z22	X23	Y23	Z23	X24	Y24	Z24	X25	Y25	Z25	X26	Y26	Z26	X27	Y27	Z27	X28	Y28	Z28	X29	Y29	Z29	X30	Y30	Z30	X31	Y31	Z31	X32	Y32	Z32	X33	Y33	Z33	X34	Y34	Z34	X35	Y35	Z35	X36	Y36	Z36	X37	Y37	Z37	X38	Y38	Z38	X39	Y39	Z39	X40	Y40	Z40	X41	Y41	Z41	X42	Y42	Z42	X43	Y43	Z43	X44	Y44	Z44	X45	Y45	Z45	X46	Y46	Z46	X47	Y47	Z47	X48	Y48	Z48	X49	Y49	Z49	X50	Y50	Z50	X51	Y51	Z51	X52	Y52	Z52	
348	1.735	316.93619	862.39923	-960.90961	318.358	863.57117	-901.68164	308.26297	878.30597	-930.98853	212.79106	252.05844	196.50366	162.68198	244.33682	-2023.9648	277.7099	30.311142	-1342.3522	115.26559	43.822689	-1453.9016	183.4015	30.886747	-1500.0844	145.10973	41.436913	-1481.8906	309.82413	40.193439	-496.3688	141.95999	49.462955	-399.67261	206.27803	32.766659	-350.56619	167.39818	46.746441	-369.5979	249.94473	65.007286	-512.24323	290.5387	74.288849	-443.74771	310.78076	204.4397	-510.43134	295.40262	267.1676	-519.83417	333.27444	251.8335	-550.47327	326.70358	294.83716	-561.0871	227.63249	59.678097	-1337.6696	271.43881	72.059723	-1397.5872	274.98056	309.01926	-1309.9401	316.12094	288.04504	-1288.3198	286.01392	246.7775	-1329.2188	263.43304	729.83124	-1115.3352	215.35561	595.53247	-1183.5297	265.17917	586.92871	-1174.9686	246.87721	648.81744	-1160.2942	280.47086	725.04535	-733.65717	274.68304	600.67712	-677.18988	225.50423	600.63989	-661.98096	244.59302	658.81146	-685.47925	149.48589	1505.8009	-820.5152	260.63177	1489.3475	-833.78326	269.16492	1480.9532	-958.25909	280.60281	1297.4237	-908.14001	297.68658	915.85675	-926.1441	153.83928	1242.0786	-916.84235	265.10565	1290.2709	-774.83624	246.07591	1310.6564	-1030.9412	201.48453	1287.7117	-271.65909	241.79941	1281.8975	-270.50671	183.48341	1286.2246	-182.62173	221.75089	1356.4053	-1540.0461	268.51181	1348.9464	-1544.5376	207.98003	1369.3444	-1626.722	228.80669	1288.7266	-585.93195	264.21857	1269.3082	-556.34393	262.39227	1274.9047	-635.46265	215.61699	1322.9594	-1253.0876	258.66638	1310.9818	-1187.443	265.604	1314.6034	-1249.4001
349	1.74	316.79068	862.49677	-961.01727	318.3222	863.56378	-901.6698	308.23236	878.29962	-930.97461	212.79001	252.04512	196.48051	162.68237	244.34331	-2023.9518	277.7189	30.300062	-1342.3403	115.26699	43.822533	-1453.9106	183.39999	30.883381	-1500.0782	145.12875	41.428715	-1481.8793	309.81223	40.194916	-496.36789	141.94905	49.449669	-399.6601	206.27583	32.77317	-350.56729	167.4008	46.750126	-369.60062	249.92776	65.011261	-512.2439	290.61191	74.199425	-443.74518	310.7807	204.444	-510.42087	295.40649	267.1944	-519.8045	333.24759	251.84909	-550.46338	326.67111	294.85135	-561.05914	227.63197	59.672745	-1337.6592	271.43118	72.040977	-1397.5281	274.94492	309.01755	-1309.9865	316.08875	288.08441	-1288.399	285.50403	246.72542	-1329.0042	263.37277	729.84033	-1115.3444	215.29376	595.56708	-1183.5414	265.12253	586.94135	-1174.9838	246.76343	648.79572	-1160.3336	280.40009	725.03339	-733.633	274.63535	600.72681	-677.08588	225.41776	600.64111	-661.96967	244.51898	658.81805	-685.48499	149.50044	1505.8049	-820.54626	260.64124	1489.3357	-833.79938	269.16992	1480.9443	-958.27686	280.57419	1297.4174	-908.15979	297.66226	915.85815	-926.13721	153.81693	1242.0704	-916.84479	265.09976	1290.2751	-774.85846	246.06381	1310.6421	-1030.9487	201.52965	1287.7311	-271.65225	241.8459	1281.9103	-270.51517	183.55032	1286.2504	-182.62669	221.77498	1356.3959	-1540.0533	268.54443	1348.9482	-1544.5454	208.00792	1369.34	-1626.7148	228.80812	1288.7388	-585.94745	264.23654	1269.3146	-556.3537	262.39502	1274.9723	-635.44275	215.62085	1322.9556	-1253.0856	258.66269	1310.9712	-1187.4536	265.61847	1314.5948	-1249.3937
350	1.745	316.77484	862.48004	-961.0094	318.28854	863.552	-901.68817	308.20984	878.29218	-930.98016	212.79037	252.03926	196.46068	162.6731	244.33897	-2023.9456	277.71481	30.290117	-1342.3223	115.26712	43.824654	-1453.9072	183.41223	30.896545	-1500.0786	145.13585	41.422127	-1481.8844	309.81168	40.182976	-496.36713	141.94655	49.455452	-399.65717	206.2814	32.770554	-350.57455	167.39703	46.751301	-369.59372	249.92668	65.016045	-512.24243	290.54486	74.278671	-443.75861	310.69858	204.45856	-510.46808	295.41037	267.22812	-519.77185	333.1926	251.87358	-550.47766	326.62207	294.87216	-561.05518	227.63632	59.669209	-1337.6576	271.43039	72.04673	-1397.4938	274.88608	309.03278	-1310.0078	316.05002	288.10791	-1288.4512	285.91534	246.77808	-1329.2775	263.3364	729.84949	-1115.3365	215.22623	595.57153	-1183.5228	265.04666	586.94336	-1174.9989	246.7619	648.79547	-1160.3108	280.34763	725.02942	-733.63757	274.64053	600.76971	-677.01416	225.35052	600.64868	-661.96472	244.45572	658.81689	-685.46338	149.50583	1505.8085	-820.5694	260.66241	1489.3212	-833.82324	269.17743	1480.9374	-958.27588	280.5683	1297.4154	-908.1615	297.63489	915.85736	-926.13776	153.78955	1242.0624	-916.85822	265.09	1290.2733	-774.86292	246.04927	1310.6365	-1030.9584	201.57422	1287.7399	-271.65262	241.8918	1281.9111	-270.52948	183.60878	1286.2666	-182.62753	221.80042	1356.3914	-1540.0594	268.56656	1348.9359	-1544.5596	208.01794	1369.2114	-1626.7269	228.81421	1288.7511	-585.95569	264.2406	1269.3328	-556.37207	262.38068	1274.9597	-635.47058	215.64212	1322.9457	-1253.103	258.68066	1310.9604	-1187.4589	265.63983	1314.5741	-1249.3966
351	1.75	316.75748	862.47357	-960.99066	318.25122	863.54297	-901.68109	308.18686	878.28906	-930.96509	212.79306	252.03151	196.44684	162.677	244.34578	-2023.9343	277.71182	30.279654	-1342.3057	115.25788	43.811176	-1453.9191	183.42751	30.89641	-1500.078	145.13409	41.423077	-1481.887	309.80682	40.18277	-496.36975	141.93419	49.4562	-399.65088	206.2812	32.763397	-350.5741	167.3916	46.760311	-369.59207	249.91605	65.015991	-512.24762	290.6149	74.185936	-443.75748	310.6669	204.44478	-510.46909	295.38113	267.24902	-519.76184	333.1777	251.89343	-550.45471	326.5845	294.88889	-561.03223	227.64658	59.670593	-1337.6509	271.41476	72.025993	-1397.4724	274.84601	309.04654	-1310.0289	316.01913	288.15628	-1288.5024	285.43021	246.74055	-1329.043	263.29922	729.85803	-1115.3267	215.16568	595.59021	-1183.5187	264.9743	586.94623	-1175.01	246.60971	648.84003	-1160.3656	280.29575	725.03345	-733.62781	274.48389	600.75995	-677.0462	225.27087	600.65735	-661.95026	244.38069	658.80487	-685.46851	149.51443	1505.8164	-820.59528	260.66068	1489.3147	-833.84192	269.17883	1480.9291	-958.30505	280.55264	1297.4139	-908.17499	297.60974	915.85413	-926.1225	153.75027	1242.062	-916.87555	265.0842	1290.2736	-774.88062	246.03429	1310.6259	-1030.9594	201.62358	1287.7505	-271.66058	241.9334	1281.9175	-270.53406	183.67816	1286.2853	-182.61794	221.82358	1356.3849	-1540.0656	268.59058	1348.9355	-1544.5707	208.0569	1369.219	-1626.7412	228.83667	1288.7528	-585.95654	264.25769	1269.3422	-556.37256	262.43488	1274.7916	-635.53058	215.66008	1322.931	-1253.1255	258.67703	1310.9482	-1187.4639	265.64188	1314.5848	-1249.4073
